<svg id="Layer_1" data-name="Layer 1" xmlns="http://www.w3.org/2000/svg" viewBox="0 0 1200 1008"><defs><style>.cls-1,.cls-3{fill:#fff;}.cls-2{fill:#00a19c;}.cls-2,.cls-3{fill-rule:evenodd;}</style></defs><rect class="cls-1" width="1200" height="1008"/><path class="cls-2" d="M867.8,438.2a276.54,276.54,0,0,1,7.92,65.8c0,152.28-123.44,275.72-275.72,275.72S324.28,656.28,324.28,504q0-9.53.66-18.89c23.41-5,58.82-.36,80-.36,28,0,19.08-34.46,48.34-18.2s42-4.36,53.43-4.36,6.36,15.54,22.89,15.54,12.21.81,29-7.37,23.64,2.14,36.36-3,7,5.16,22.26,0,24.17-19.71,29.25-15.9,15.91,5.73,30.53,6.36,21.63,8.91,35,7,15.26-26.32,35-9.54,29.25,32.14,56,16.07,48.34-37.7,50.88-35.79c.81.61,6.52,1.59,13.95,2.66"/><path class="cls-2" d="M600,234.24C749,234.24,869.76,355,869.76,504S749,773.76,600,773.76,330.24,653,330.24,504,451,234.24,600,234.24m0-25.18c162.89,0,294.94,132.05,294.94,294.94S762.89,798.94,600,798.94,305.06,666.89,305.06,504,437.11,209.06,600,209.06Z"/><path class="cls-2" d="M853.13,394.57a272.16,272.16,0,0,1,12.49,35.28c-.46-.09-.31.19.18.66q2.24,8.08,4,16.38c-.77.45-1.11.83-.56,1.22.93.67,1.31,3.08,1.25,3.94a3,3,0,0,0,.6,1.35c.27,1.45.53,2.91.77,4.37h-31.9s1.26-1.5.66-2,1.64-2.81,1.59-3.68.32-3.27,1.25-3.94-.71-1.27-2.62-2.34,1.09-1.14,2.13-3-3.12-1.74-3-2.41,2.85-2.14,2-2.67-2.08-2-1.2-2.61,8.15-5.62,6.23-5.22-5.14,1.27-2.21-2,5.06-6.22,2.87-6-3.67-.54-2.41-1.68,6.51-4.28,3.06-4-3.14-1.24-1.12-2.57,5-4.28,3.45-4.55-5,0-2.63-2.41c1.24-1.23,3.34-6.84,5.12-12.11"/><path class="cls-3" d="M794.75,699.17A275.76,275.76,0,0,1,364.22,647,232.74,232.74,0,0,0,450.69,640c56.6-15.91,48.34-21.31,10.17-32.44s-43.25-29.26,36.26-43.89,168.55-36.89,120.21-50.88-59.15-21.75-61.7-24.95,54.7-3,56.61-3-22.26,7-18.45,8.26,43.89,11.45,75.06,21c26.39,8.08,36.81,24.14,3.09,42.68-46.38,25.49-106.81,30.84-22.81,61,59.14,21.23,126.57,31.11,100.49,56.55-22.8,22.25.6,24.34,45.13,24.93"/><path class="cls-2" d="M482.45,413.11c-.24.73-6.54,17.92-9.2,20.1s1.21,1.94,2.9,2.18-1.57,2.9-3.81,4.11-2.57,2.58,1.24,2.34-2,2.6-3.39,3.63.24,1.75,2.66,1.51.07,2.42-3.17,5.39.33,2.18,2.45,1.81-5.93,4.18-6.9,4.72.42,1.88,1.33,2.36-2.12,1.82-2.24,2.43,4.48.48,3.33,2.18-4.48,1.75-2.36,2.72,3.93,1.51,2.9,2.12-1.45,2.78-1.39,3.57-2.42,2.84-1.75,3.33-.73,1.84-.73,1.84h36.26s-1.39-1.36-.73-1.84-1.81-2.54-1.75-3.33-.37-3-1.4-3.57.79-1.15,2.91-2.12-1.21-1-2.36-2.72,3.45-1.58,3.33-2.18-3.15-1.94-2.24-2.43,2.3-1.81,1.33-2.36-9-5.08-6.9-4.72,5.69,1.15,2.45-1.81-5.6-5.63-3.18-5.39,4.06-.48,2.67-1.51-7.21-3.88-3.39-3.63,3.48-1.12,1.24-2.34-5.51-3.87-3.82-4.11,5.57,0,2.91-2.18-9-19.37-9.2-20.1"/><path class="cls-2" d="M499.73,431.37c-.2.6-5.4,14.81-7.6,16.61s1,1.61,2.4,1.81-1.3,2.4-3.15,3.4-2.13,2.13,1,1.92-1.65,2.16-2.8,3,.2,1.45,2.2,1.25.06,2-2.62,4.45.27,1.8,2,1.5-4.9,3.46-5.7,3.91.35,1.55,1.1,1.95-1.75,1.5-1.85,2,3.7.4,2.75,1.8-3.7,1.45-1.95,2.25,3.25,1.25,2.4,1.75-1.2,2.31-1.15,3-2,2.35-1.45,2.75-.61,1.52-.61,1.52h30s-1.15-1.12-.6-1.52-1.5-2.1-1.45-2.75-.3-2.46-1.15-3,.65-1,2.4-1.75-1-.85-1.95-2.25,2.85-1.3,2.75-1.8-2.6-1.6-1.85-2,1.9-1.5,1.1-1.95-7.46-4.21-5.7-3.91,4.7.95,2-1.5-4.63-4.65-2.63-4.45,3.36-.4,2.21-1.25-6-3.21-2.81-3,2.88-.92,1-1.92-4.55-3.2-3.15-3.4,4.6,0,2.4-1.81-7.41-16-7.61-16.61"/><path class="cls-2" d="M523.84,423.6c-.11.6-3,14.82-4.19,16.62s.55,1.6,1.32,1.8-.72,2.4-1.74,3.4-1.17,2.13.57,1.93-.91,2.15-1.55,3,.11,1.45,1.22,1.25,0,2-1.45,4.45.15,1.81,1.11,1.51-2.7,3.45-3.14,3.9.19,1.55.61,2-1,1.5-1,2,2,.4,1.51,1.8-2,1.45-1.07,2.26,1.79,1.25,1.32,1.75a5.93,5.93,0,0,0-.63,2.95c0,.65-1.11,2.35-.8,2.75s-.34,1.53-.34,1.53H532.1s-.63-1.13-.33-1.53-.83-2.1-.8-2.75a5.93,5.93,0,0,0-.63-2.95c-.47-.5.36-1,1.32-1.75s-.55-.86-1.07-2.26,1.57-1.3,1.51-1.8-1.43-1.6-1-2,1-1.5.61-2-4.11-4.2-3.15-3.9,2.6.95,1.12-1.51-2.55-4.65-1.45-4.45,1.85-.4,1.22-1.25-3.29-3.2-1.55-3,1.59-.93.57-1.93-2.51-3.2-1.74-3.4,2.54,0,1.32-1.8-4.08-16-4.19-16.62"/><path class="cls-2" d="M668.14,440.05c-.07.35-1.78,8.81-2.5,9.88s.33,1,.79,1.08-.43,1.43-1,2-.69,1.27.34,1.15-.54,1.28-.92,1.78.07.87.72.75,0,1.19-.86,2.65.09,1.07.66.89-1.6,2.06-1.87,2.33.12.92.36,1.16-.57.89-.6,1.19,1.21.24.9,1.07-1.21.87-.64,1.34,1.07.75.79,1a3.52,3.52,0,0,0-.38,1.76c0,.39-.66,1.4-.48,1.64s-.19.91-.19.91h9.83s-.37-.67-.19-.91-.5-1.25-.48-1.64a3.52,3.52,0,0,0-.38-1.76c-.28-.29.22-.56.79-1s-.33-.5-.64-1.34.94-.77.9-1.07-.85-.95-.6-1.19.62-.9.36-1.16-2.45-2.51-1.87-2.33,1.54.57.66-.89-1.52-2.77-.86-2.65,1.1-.24.72-.75-2-1.9-.92-1.78,1-.55.34-1.15-1.5-1.91-1-2,1.51,0,.79-1.08-2.43-9.53-2.49-9.88"/><path class="cls-2" d="M680.91,442.82c-.1.36-2.76,8.82-3.88,9.89s.51,1,1.22,1.07-.66,1.43-1.61,2-1.08,1.26.53,1.15-.84,1.28-1.43,1.78.1.87,1.12.75,0,1.19-1.34,2.65.14,1.07,1,.89-2.5,2.06-2.91,2.32.18.93.56,1.17-.89.89-.94,1.19,1.89.24,1.4,1.07-1.89.86-1,1.34,1.66.74,1.22,1a2.55,2.55,0,0,0-.58,1.76c0,.39-1,1.4-.74,1.64s-.31.91-.31.91h15.31s-.59-.67-.31-.91-.77-1.25-.74-1.64a2.56,2.56,0,0,0-.59-1.76c-.43-.3.33-.56,1.23-1s-.51-.51-1-1.34,1.46-.78,1.41-1.07-1.33-1-1-1.19,1-.9.56-1.17-3.8-2.5-2.91-2.32,2.4.57,1-.89-2.36-2.77-1.34-2.65,1.72-.24,1.13-.75-3-1.9-1.43-1.78,1.47-.56.52-1.15-2.33-1.91-1.61-2,2.35,0,1.23-1.07-3.79-9.53-3.89-9.89"/><path class="cls-2" d="M701.88,436c-.11.39-3,9.47-4.17,10.62s.55,1,1.32,1.15-.72,1.54-1.73,2.18-1.17,1.36.56,1.23-.9,1.37-1.53,1.92.11.92,1.2.8,0,1.28-1.44,2.84.15,1.15,1.11,1-2.69,2.21-3.12,2.5.19,1,.6,1.24-1,1-1,1.28,2,.26,1.51,1.16-2,.92-1.07,1.43,1.79.8,1.32,1.12a2.71,2.71,0,0,0-.63,1.89c0,.42-1.1,1.5-.8,1.76s-.33,1-.33,1H710.1s-.63-.72-.33-1-.82-1.34-.79-1.76a2.81,2.81,0,0,0-.63-1.89c-.47-.32.35-.6,1.31-1.12s-.55-.54-1.07-1.43,1.57-.84,1.51-1.16-1.42-1-1-1.28,1-.95.6-1.24-4.09-2.69-3.13-2.5,2.58.61,1.11-1-2.54-3-1.44-2.84,1.84-.26,1.21-.8-3.27-2.05-1.54-1.92,1.58-.59.57-1.23-2.5-2-1.73-2.18,2.52,0,1.31-1.15S702,436.34,701.88,436"/><path class="cls-2" d="M794.75,398.81c-.24.89-6.56,22-9.24,24.66s1.22,2.38,2.92,2.68-1.58,3.56-3.83,5.05-2.58,3.16,1.25,2.86-2,3.19-3.4,4.45.24,2.16,2.67,1.86.07,3-3.19,6.61.33,2.68,2.46,2.23-6,5.13-6.93,5.79.43,2.31,1.34,2.9-2.13,2.23-2.25,3,4.5.6,3.34,2.68-4.49,2.15-2.37,3.34,4,1.86,2.92,2.6-1.46,3.42-1.4,4.38-2.43,3.49-1.76,4.09-.73,2.26-.73,2.26H813s-1.4-1.67-.74-2.26-1.82-3.12-1.76-4.09-.36-3.64-1.4-4.38.79-1.41,2.92-2.6-1.21-1.26-2.37-3.34,3.47-1.93,3.34-2.68-3.16-2.37-2.24-3,2.3-2.23,1.33-2.9-9-6.24-6.93-5.79,5.72,1.41,2.46-2.23-5.62-6.91-3.19-6.61,4.08-.59,2.68-1.86-7.23-4.75-3.4-4.45,3.49-1.38,1.24-2.86-5.53-4.76-3.83-5.05,5.59,0,2.92-2.68-9-23.77-9.24-24.66"/><path class="cls-2" d="M813,419.73c-.25.57-6.59,13.85-9.27,15.54s1.22,1.49,2.93,1.68-1.59,2.24-3.85,3.18-2.59,2,1.25,1.8-2,2-3.41,2.81.24,1.35,2.68,1.17.07,1.87-3.2,4.16.34,1.69,2.47,1.4-6,3.23-7,3.65.43,1.45,1.34,1.83-2.13,1.4-2.25,1.87,4.51.37,3.35,1.68-4.51,1.36-2.38,2.11,4,1.17,2.93,1.64a3.21,3.21,0,0,0-1.4,2.75c.06.61-2.44,2.2-1.77,2.58s-.74,1.42-.74,1.42h36.53s-1.4-1.05-.73-1.42-1.83-2-1.77-2.58a3.21,3.21,0,0,0-1.4-2.75c-1-.47.79-.89,2.92-1.64s-1.22-.8-2.37-2.11,3.47-1.21,3.35-1.68-3.17-1.5-2.26-1.87,2.32-1.41,1.35-1.83-9.09-3.93-7-3.65,5.73.89,2.46-1.4-5.64-4.35-3.2-4.16,4.09-.38,2.69-1.17-7.26-3-3.42-2.81,3.51-.86,1.25-1.8-5.55-3-3.84-3.18,5.61,0,2.93-1.68-9-15-9.27-15.54"/><path class="cls-2" d="M836,384.6c-.22.8-5.91,19.79-8.31,22.2s1.09,2.14,2.62,2.41-1.42,3.21-3.44,4.54-2.33,2.85,1.12,2.58-1.81,2.87-3.07,4,.22,1.94,2.41,1.67.06,2.68-2.87,5.95.3,2.41,2.21,2-5.36,4.62-6.23,5.22.38,2.07,1.2,2.6-1.91,2-2,2.68,4,.53,3,2.41-4,1.94-2.14,3,3.56,1.67,2.63,2.34-1.31,3.07-1.26,3.94-2.19,3.15-1.59,3.68-.66,2-.66,2H852.4s-1.26-1.5-.66-2-1.64-2.81-1.58-3.68-.33-3.27-1.26-3.94.71-1.27,2.63-2.34-1.1-1.14-2.14-3,3.12-1.74,3-2.41-2.85-2.14-2-2.68,2.08-2,1.2-2.6-8.15-5.62-6.24-5.22,5.15,1.27,2.22-2-5.06-6.21-2.87-5.95,3.66-.53,2.4-1.67-6.51-4.28-3.06-4,3.14-1.24,1.12-2.58-5-4.27-3.45-4.54,5,0,2.63-2.41-8.1-21.4-8.32-22.2"/><path class="cls-2" d="M727,379.56l-.16-.13m.54.58-.35-.43,0,0h0Zm-72.49-56.92.08.45C654.93,323.39,654.91,323.24,654.88,323.09Zm-.13-.87c0,.15,0,.3.07.44C654.79,322.52,654.77,322.37,654.75,322.22Zm-.08-.85c0,.14,0,.29,0,.43C654.7,321.66,654.68,321.51,654.67,321.37Zm0-.82c0,.12,0,.26,0,.39C654.64,320.81,654.63,320.67,654.63,320.55Zm0-.82c0,.13,0,.26,0,.39C654.63,320,654.63,319.86,654.64,319.73Zm.05-.79c0,.12,0,.25,0,.38C654.67,319.19,654.67,319.06,654.69,318.94Zm.09-.77c0,.12,0,.24,0,.36C654.75,318.41,654.76,318.29,654.78,318.17Zm.15-.76c0,.13,0,.25-.08.38C654.88,317.66,654.9,317.54,654.93,317.41Zm.19-.71c0,.12-.07.24-.1.36C655.05,316.94,655.09,316.82,655.12,316.7Zm-344.65,145c7.7,4.33,9.87,10.36,15.64,10.36s77.53-51.22,87.63-52.67,18.27,0,14.42,3.85S368,476.1,356,488.61,351.69,504,351.69,504,519.06,353.94,524.84,348.17s0,20.68,0,28.86,15.87,2.4,25.48,20.68S575.8,451,573.89,467.16s80,17.11,94,17.59-81.45-123.59-82.9-125,46.18-46.66,51.47-53.39c.85-1.09,3.74,0,8,2.66-.91,9.54-2.1,37.85,14.19,48.18,19.72,12.51,49.54,38.48,36.07,53.39-8.75,9.69,19.28,24.87,43.27,35.62a33.5,33.5,0,0,1-3.25,3.12c-3.22,2.79.33,2.05,2.44,1.71s-5.9,3.93-6.86,4.44.42,1.77,1.32,2.23-2.1,1.71-2.22,2.28,4.45.45,3.31,2.05-4.45,1.65-2.35,2.56,3.91,1.43,2.89,2-1.44,2.63-1.38,3.37-2.41,2.67-1.75,3.13-.72,1.74-.72,1.74h31.37c-.31,1-2.08,2.9-1.54,3.38s-.66,2-.66,2h32.78s-1.26-1.5-.66-2-1.64-2.81-1.59-3.68-.32-3.27-1.26-3.94.72-1.27,2.63-2.34-1.09-1.14-2.13-3,3.12-1.74,3-2.41-2.84-2.14-2-2.67a3.51,3.51,0,0,0,1.5-2c1.75-.94,2.83-2.1,3-3.37s-3.59-7.67-9-16.21c1.44-.33-8.18-12.42-13.36-20.5-12.06-18.28-24.76-37.43-26.2-42.1,8.15-2.75,16.06-6.19,16.77-7.62,1.45-2.88,88.5,80.8,98.12,91.86S871.84,447,871.84,447s-94.74-81.28-100-88-20.68-.48-29.81,4.81-35.11-14.91-47.14-26.93c-7.55-7.55-25.35-22.32-39.58-32.14a4.2,4.2,0,0,0-.77-.53c-8.08-5.52-14.9-9.35-17.84-9.17-8.18.48-60.12,52.9-63,53.86s-39.92-19.23-44.24-24.52-85.61,75.5-91.87,79.83-23.08-2.4-41.36,5.77S310.47,461.66,310.47,461.66Z"/><path class="cls-2" d="M463.56,596.5c14.86-1.65,110.17-2.62,139.53,2.23-38.35,0-139.53-2.23-139.53-2.23"/><path class="cls-2" d="M386.39,632.82c1.67,1.11,100.91-2.62,127.81,2.23-35.13,0-127.81-2.23-127.81-2.23"/><path class="cls-2" d="M365.74,639.53c1.68,1.11,100.92-2.62,127.81,2.23-35.13,0-127.81-2.23-127.81-2.23"/><path class="cls-2" d="M348.91,644.84c1.67,1.11,100.91-2.62,127.81,2.23-35.13,0-127.81-2.23-127.81-2.23"/><path class="cls-2" d="M555.3,652.79c14.86-1.65,110.17-2.62,139.53,2.23-38.35,0-139.53-2.23-139.53-2.23"/><path class="cls-2" d="M457.27,709.68c28.53-1.66,211.48-2.63,267.85,2.22-73.63,0-267.85-2.22-267.85-2.22"/><path class="cls-2" d="M439.49,681.51c23.69-1.65,175.56-2.62,222.36,2.23-61.12,0-222.36-2.23-222.36-2.23"/><path class="cls-2" d="M527.15,732.2c23.69-1.65,175.57-2.62,222.36,2.23-61.12,0-222.36-2.23-222.36-2.23"/><path class="cls-2" d="M409,571.18c17.06-1.65,126.42-2.63,160.11,2.23-44,0-160.11-2.23-160.11-2.23"/><path class="cls-2" d="M556.06,547.57c8.23-1,61-1.55,77.3,1.32-21.25,0-77.3-1.32-77.3-1.32"/></svg>